<?xml version="1.0" encoding="UTF-8"?>
<svg width="490px" height="490px" viewBox="0 0 490 490" version="1.1" xmlns="http://www.w3.org/2000/svg" xmlns:xlink="http://www.w3.org/1999/xlink">
    <title>Artboard</title>
    <g id="Artboard" stroke="none" stroke-width="1" fill="none" fill-rule="evenodd">
        <path d="M71.9842378,265.099514 C81.0633962,340.449457 137.933174,400.024463 209.900303,415.207764 L209.901515,366.1695 C183.031895,358.900158 161.385318,342.535344 144.433448,319.701133 L144.433448,319.701133 L152.462685,313.740315 C168.157439,334.881187 190.506659,349.771129 215.406839,356.399886 C215.726759,356.485052 219.580762,357.405408 219.901515,357.487843 L219.901515,357.487843 L219.901515,417.188509 C219.922184,419.067693 219.931449,420.07333 219.934029,420.707864 L219.934361,421.291654 C219.933919,421.39837 219.933169,421.493668 219.932186,421.585399 L219.92861,421.857743 C219.919665,422.458654 219.90397,423.240549 219.901773,426.35943 L219.901515,427.121638 C219.854808,427.114128 216.365114,426.618231 216.318417,426.610687 C135.882259,413.615312 71.5324854,348.525637 61.950815,265.441253 C61.9198712,265.172934 61.1574062,260.710673 60.9015154,255.098485 L60.9015154,255.098485 L180.628332,255.098948 C180.149271,251.892196 179.901515,248.559337 179.901515,245.098485 C179.901515,216.178395 198.78846,191.669587 224.900654,183.233757 L224.900439,70.3440278 C154.690361,78.7506405 97.2851231,128.872466 77.9195789,195.096947 L130.293439,195.097889 C138.911127,175.343295 152.592216,158.005135 170.215818,144.854395 L170.215818,144.854395 L176.196311,152.868988 C158.210262,166.290187 144.690464,184.427864 137.037972,205.098485 C136.991492,205.098485 136.945232,205.098068 136.899192,205.097241 L136.901515,205.098485 L65.0349167,205.098485 C82.2280049,125.127346 151.013951,64.2936016 234.901515,59.4145715 L234.901515,59.4145715 L234.900599,180.863108 C238.160589,180.359681 241.500549,180.098485 244.901515,180.098485 C273.821605,180.098485 298.330413,198.985429 306.766243,225.097623 L420.097888,225.098016 C412.365259,154.02021 361.745276,95.7477421 294.902772,76.2074155 L294.90186,130.511455 C314.675759,139.144871 332.060953,152.848485 345.20539,170.492973 L345.20539,170.492973 L337.186031,176.467074 C323.762703,158.448215 305.596099,144.903287 284.901515,137.239337 L284.901515,137.239337 L284.901515,63.3232287 C364.615369,80.461003 425.53807,148.860199 430.761339,232.380644 C430.778197,232.650215 430.885818,234.823532 430.901515,235.093417 L430.901515,235.093417 L428.901,235.093 L428.901515,235.098485 L309.136892,235.097569 C309.640319,238.357558 309.901515,241.697518 309.901515,245.098485 C309.901515,279.314484 283.463984,307.355668 249.901954,309.909003 L249.901288,419.19514 C326.316496,417.524216 391.678473,366.206019 413.316409,295.099872 L359.467,295.098 L359.461428,295.11341 C349.167424,318.674222 331.718943,338.789013 309.177844,352.327635 L308.42459,352.776483 L303.33571,344.168156 C326.292528,330.597051 343.585459,309.566487 352.691524,285.098485 L352.691524,285.098485 L426.312434,285.098485 C426.214212,285.535053 426.11326,285.973937 426.010829,286.411293 L425.856228,287.065698 C425.156936,290.001034 424.418705,292.779091 424.025989,294.217229 L423.944563,294.514278 C423.869137,294.78831 423.812179,294.991847 423.77791,295.111911 C401.845413,371.95256 331.892271,427.546272 249.901788,429.20255 L249.901515,460.007546 C248.061969,460.069383 247.517002,460.094069 247.323246,460.094069 L247.323246,460.094069 L243.221801,460.094069 C128.164549,459.21123 34.2471582,367.818015 30.0477598,253.101178 C29.9503368,250.439829 29.9015154,247.771977 29.9015154,245.098485 C29.9015154,126.357263 126.160294,30.0984846 244.901515,30.0984846 C363.642737,30.0984846 459.901515,126.357263 459.901515,245.098485 C459.901515,351.343093 382.451234,440.432311 279.90209,457.248671 L279.903797,477.45178 C389.847846,461.245581 475.106591,369.596268 479.796626,255.998479 L479.796626,255.998479 L484.020634,255.998989 C484.078867,255.999005 484.138098,255.99902 484.198411,255.999035 L489.803031,255.999218 C484.595224,386.881145 376.815747,490 245,490 C109.690236,490 -5.0126829e-14,380.309764 -4.18414956e-14,245 C-3.35561621e-14,109.690236 109.690236,-1.13686838e-13 245,-1.13686838e-13 C376.641808,-1.13686838e-13 484.410117,103.20519 489.789534,233.998479 L489.789534,233.998479 L485.751352,233.99895 C485.642414,233.998976 485.534916,233.999003 485.428518,233.99903 L479.781088,234 C474.415695,108.735782 371.128193,10 245,10 C115.213084,10 10,115.213084 10,245 C10,374.786916 115.213084,480 245,480 C253.410537,480 261.719047,479.562727 269.90336,478.709405 L269.901515,450.042948 C269.902431,449.622241 269.901515,449.150991 269.901515,448.620156 C365.367005,437.145292 439.720246,360.327666 448.938187,265.100305 L337.790388,265.098625 C331.134301,296.122522 309.255629,321.812897 279.902092,333.443102 L279.901629,385.786635 C318.687754,376.115683 352.15826,350.733554 371.801329,315.308266 L371.801329,315.308266 L380.546844,320.157591 C357.475621,361.765384 316.607077,390.416201 269.901515,398.05913 L269.901515,398.05913 L269.901,326.389 L269.896816,326.362614 C270.718875,326.121107 270.70189,326.120403 271.373954,325.897316 L271.575476,325.830613 C302.613384,315.585956 325.367888,288.1194 329.294552,255.313116 L329.294552,255.313116 L329.321,255.316 L329.321529,255.098485 L449.661754,255.09961 C449.821,251.78508 449.901515,248.450736 449.901515,245.098485 C449.901515,138.627858 368.734132,51.1148891 264.901428,41.0616417 L264.901575,152.242661 C277.757165,155.152832 290.232287,160.650653 300.449367,168.020925 C310.469311,175.248991 319.078979,184.423785 325.694489,195.098067 L380.89287,195.098746 C368.888596,162.304132 345.258963,134.557364 313.901515,117.498479 L313.901515,117.498479 L318.68028,108.798482 C356.368647,129.301474 383.825055,164.269005 394.701503,205.098485 L394.701503,205.098485 L319.901515,205.098485 L319.50906,204.362026 C306.447924,180.139841 282.508867,163.949509 254.901515,160.68951 L254.901515,160.68951 L254.901648,40.3381231 C251.588287,40.178973 248.254301,40.0984846 244.901515,40.0984846 C138.430889,40.0984846 50.9179199,121.265868 40.8646725,225.098572 L151.994946,225.09827 C157.4042,199.776909 172.990138,177.801572 194.900779,164.221841 L194.901031,108.919781 C162.129145,120.924512 134.499136,144.553497 117.440945,175.909669 L117.440945,175.909669 L108.656675,171.130904 C129.159668,133.442537 164.072035,106.194934 204.901515,95.3184858 L204.901515,95.3184858 L204.901515,170.098485 L204.74505,170.097974 C180.603329,183.009929 164.081903,206.75339 160.589735,234.115192 L160.556693,235.098485 L40.1411539,235.098352 C39.9820038,238.411713 39.9015154,241.745699 39.9015154,245.098485 C39.9015154,247.649997 39.9481049,250.195889 40.0410663,252.735356 C44.003448,360.977503 131.752369,447.447619 239.901189,450.03867 L239.901372,339.976206 C232.560938,339.606015 225.352628,338.397818 218.380325,336.386307 C195.698209,329.842512 176.313459,315.00824 163.969274,295.098913 L108.706907,295.099058 C122.444002,332.457547 151.105291,362.911197 188.241591,378.680782 L188.241591,378.680782 L184.332986,387.885281 C140.601698,369.315196 107.865802,331.74324 95.3441868,286.177146 C95.3269573,286.114449 95.1458486,285.161213 95.1286957,285.098485 L95.1286957,285.098485 L169.659,285.098 L169.723356,285.064937 L169.741,285.098 L169.901515,285.098485 L169.901,285.395 L170.052627,285.675768 C180.8865,305.57867 199.319796,320.479496 221.152275,326.77817 C227.227387,328.530841 233.504683,329.601836 239.901884,329.962045 L239.901013,279.743968 C222.939787,277.317604 209.901515,262.73067 209.901515,245.098485 C209.901515,225.768518 225.571549,210.098485 244.901515,210.098485 C264.231482,210.098485 279.901515,225.768518 279.901515,245.098485 C279.901515,254.652509 276.269935,262.629882 270.259663,269.104079 C267.04039,266.149989 266.530935,265.661184 266.195378,265.332747 L266.13388,265.272482 C265.860737,265.004681 265.59856,264.748493 263.824078,263.119407 L263.404236,262.734226 C263.255578,262.597924 263.098003,262.453526 262.930891,262.30047 C267.332974,257.558595 269.901515,251.916366 269.901515,245.098485 C269.901515,231.291366 258.708634,220.098485 244.901515,220.098485 C231.094397,220.098485 219.901515,231.291366 219.901515,245.098485 C219.901515,258.905603 231.094397,270.098485 244.901515,270.098485 L249.901515,270.098485 L249.90219,299.874209 C277.934368,297.347748 299.901515,273.788467 299.901515,245.098485 C299.901515,214.722823 275.277177,190.098485 244.901515,190.098485 C214.525854,190.098485 189.901515,214.722823 189.901515,245.098485 C189.901515,259.845928 195.143357,271.661189 203.980888,281.08561 C208.459828,285.861991 212.42844,288.783687 217.473994,291.81102 L217.473994,291.81102 L212.329037,300.385949 C209.966233,298.968267 208.360802,297.936011 206.134724,296.297171 C202.845063,293.875318 199.671633,291.109443 196.686341,287.925901 C190.537268,281.368475 185.828522,273.775652 182.985099,265.098678 Z" id="Combined-Shape" fill="#000000" fill-rule="nonzero"></path>
    </g>
</svg>