<svg width="110" height="44" viewBox="0 0 110 44" fill="none" xmlns="http://www.w3.org/2000/svg">
<mask id="mask0" mask-type="alpha" maskUnits="userSpaceOnUse" x="0" y="0" width="110" height="44">
<path fill-rule="evenodd" clip-rule="evenodd" d="M0 0H110V44H0V0Z" fill="white"/>
</mask>
<g mask="url(#mask0)">
<path fill-rule="evenodd" clip-rule="evenodd" d="M88.3709 44.0004H-0.00128174V21.6284C-0.00128174 9.68351 9.68229 0 21.6292 0H109.999V22.372C109.999 34.3169 100.316 44.0004 88.3709 44.0004Z" fill="#001983"/>
</g>
<path fill-rule="evenodd" clip-rule="evenodd" d="M21.4931 15.3333C22.5191 15.3333 23.5259 15.5273 24.4731 15.8732C25.1456 16.1248 26.0736 16.5898 26.0736 17.1873C26.0736 17.6331 25.8161 18.0193 25.2628 18.0193C25.1264 18.0193 24.9861 17.9809 24.8881 17.9232C23.9217 17.3814 22.815 16.9741 21.5123 16.9741C19.5775 16.9741 18.3344 17.5159 18.3344 18.7724C18.3344 19.9118 19.3009 20.3191 21.5719 21.0146C24.7306 21.9791 26.4886 22.8111 26.4886 25.0148C26.4886 27.0822 24.7498 28.6673 21.4528 28.6673C19.7159 28.6673 17.9386 28.1063 16.7935 27.2359C16.4976 27.0053 16.2805 26.696 16.2805 26.3675C16.2805 25.8833 16.636 25.6143 17.0894 25.6143C17.3276 25.6143 17.5255 25.7104 17.7619 25.8449C18.8474 26.5212 19.8542 27.0438 21.4739 27.0438C23.5663 27.0438 24.5922 26.2138 24.5922 25.1109C24.5922 23.8159 23.4279 23.4105 21.0589 22.715C17.5448 21.6909 16.4381 20.6284 16.4381 18.8109C16.4381 16.4937 18.5304 15.3333 21.4931 15.3333ZM35.1058 15.3333C39.1137 15.3333 41.7805 18.367 41.7805 22.0003C41.7805 25.6335 39.1137 28.6673 35.1058 28.6673C31.0998 28.6673 28.433 25.6335 28.433 22.0003C28.433 18.367 31.0998 15.3333 35.1058 15.3333ZM54.6766 15.4101C55.2684 15.4101 55.643 15.8347 55.643 16.3573V23.2952C55.643 26.5999 53.5699 28.6673 50.0961 28.6673C46.6223 28.6673 44.5492 26.5999 44.5492 23.2952V16.3573C44.5492 15.8347 44.9238 15.4101 45.5156 15.4101C46.069 15.4101 46.4436 15.7963 46.4436 16.3573V23.4874C46.4436 25.5547 47.6867 26.9861 50.0961 26.9861C52.5055 26.9861 53.7486 25.5547 53.7486 23.4874V16.3573C53.7486 15.7963 54.1232 15.4101 54.6766 15.4101ZM76.6875 15.3333C78.8586 15.3333 80.6743 16.242 81.6618 17.4582C81.8194 17.6523 81.9193 17.8636 81.9193 18.1153C81.9193 18.5995 81.5831 18.9281 81.0701 18.9281C80.6935 18.9281 80.438 18.7148 80.2401 18.4823C79.3908 17.5543 78.2476 17.0144 76.8047 17.0144C73.6076 17.0144 71.9283 19.2758 71.9283 22.0003C71.9283 24.7247 73.6076 26.9861 76.8047 26.9861C78.2476 26.9861 79.3908 26.4443 80.2401 25.5163C80.438 25.2857 80.6935 25.0725 81.0701 25.0725C81.5831 25.0725 81.9193 25.401 81.9193 25.8833C81.9193 26.135 81.8194 26.3482 81.6618 26.5404C80.6743 27.7585 78.8586 28.6673 76.6875 28.6673C72.5604 28.6673 70.0127 25.6143 70.0127 22.0003C70.0127 18.3862 72.5604 15.3333 76.6875 15.3333ZM63.2324 15.5657C66.2335 15.5657 67.7129 17.1297 67.7129 19.3527C67.7129 21.0723 66.7849 22.348 65.0077 22.8303L67.2192 27.257C67.2787 27.3915 67.3191 27.526 67.3191 27.6624C67.3191 28.1255 66.9828 28.5885 66.3911 28.5885C65.9357 28.5885 65.6994 28.3964 65.5418 28.0678L63.0345 23.0435H58.8479C58.381 23.0378 57.9909 22.69 57.9909 22.2308C57.9909 21.737 58.381 21.4239 58.8479 21.42H63.6051C65.0673 21.42 65.8185 20.492 65.8185 19.3527C65.8185 18.2133 65.0673 17.2642 63.6051 17.2642H58.8479C58.3579 17.2584 57.9506 16.8934 57.9506 16.4149C57.9506 15.8962 58.3579 15.5696 58.8479 15.5657H63.2324ZM92.5156 15.5657C93.0093 15.5657 93.4243 15.9327 93.4243 16.4149C93.4243 16.8972 93.0093 17.2642 92.5156 17.2642H86.1578V20.9954H89.7507C90.2253 20.9954 90.6211 21.3624 90.6211 21.8446C90.6211 22.348 90.2253 22.6958 89.7507 22.6958H86.1578V26.7344H92.8114C93.3052 26.7344 93.7202 27.063 93.7202 27.5836C93.7202 28.0678 93.3052 28.4348 92.8114 28.4348H85.2298C84.6573 28.4348 84.2634 28.0294 84.2634 27.5068V16.4937C84.2634 15.9711 84.6976 15.5657 85.2298 15.5657H92.5156ZM35.1058 17.0144C32.047 17.0144 30.3293 19.3527 30.3293 22.0003C30.3293 24.6479 32.047 26.9861 35.1058 26.9861C38.1665 26.9861 39.8842 24.6479 39.8842 22.0003C39.8842 19.3527 38.1665 17.0144 35.1058 17.0144Z" fill="#FEFEFE"/>
</svg>
